# xmcd CD database file
#
# Track frame offsets:
#	150
#	14925
#	26720
#	42632
#	56285
#	74962
#	93820
#	115980
#	133265
#	145455
#	159457
#	177565
#
# Disc length: 2732 seconds
#
# Revision: 0
# Processed by: cddbd v1.5.1PL2 Copyright (c) Steve Scherf et al.
# Submitted via: CDex 1.51
#
DISCID=bd0aaa0c
DTITLE=inis - 1
DYEAR=2000
DGENRE=New Age
TTITLE0=korona
TTITLE1=myrkkylepp‰kerttu
TTITLE2=matkalla
TTITLE3=kajo
TTITLE4=muista
TTITLE5=virhe
TTITLE6=aivosalpaaja
TTITLE7=analyysi
TTITLE8=alasp‰in
TTITLE9=omenak‰‰rme
TTITLE10=tolpat_katkova_lohik‰‰rmeen_hengitys
TTITLE11=min‰_annoin_enemm‰n
EXTD=YEAR: 2000
EXTT0=
EXTT1=
EXTT2=
EXTT3=
EXTT4=
EXTT5=
EXTT6=
EXTT7=
EXTT8=
EXTT9=
EXTT10=
EXTT11=
PLAYORDER=
